<svg xmlns="http://www.w3.org/2000/svg" xmlns:xlink="http://www.w3.org/1999/xlink" width="500" zoomAndPan="magnify" viewBox="0 0 375 374.999991" height="500" preserveAspectRatio="xMidYMid meet" version="1.0"><defs><clipPath id="7d3a7077de"><path d="M 66.066406 249.769531 L 309.066406 249.769531 L 309.066406 277.851562 L 66.066406 277.851562 Z M 66.066406 249.769531 " clip-rule="nonzero"/></clipPath><clipPath id="79cc5263bf"><path d="M 66.066406 171 L 309.066406 171 L 309.066406 200 L 66.066406 200 Z M 66.066406 171 " clip-rule="nonzero"/></clipPath><clipPath id="435a737b68"><path d="M 66.066406 97.199219 L 309.066406 97.199219 L 309.066406 126 L 66.066406 126 Z M 66.066406 97.199219 " clip-rule="nonzero"/></clipPath></defs><rect x="-37.5" width="450" fill="#ffffff" y="-37.499999" height="449.999989" fill-opacity="1"/><rect x="-37.5" width="450" fill="#ffffff" y="-37.499999" height="449.999989" fill-opacity="1"/><g clip-path="url(#7d3a7077de)"><path fill="#000000" d="M 80.085938 277.851562 L 295.046875 277.851562 C 302.789062 277.851562 309.066406 271.578125 309.066406 263.835938 C 309.066406 256.09375 302.789062 249.824219 295.046875 249.824219 L 80.085938 249.824219 C 72.34375 249.824219 66.066406 256.09375 66.066406 263.835938 C 66.066406 271.578125 72.34375 277.851562 80.085938 277.851562 " fill-opacity="1" fill-rule="nonzero"/></g><g clip-path="url(#79cc5263bf)"><path fill="#000000" d="M 80.085938 199.988281 L 295.046875 199.988281 C 302.789062 199.988281 309.066406 193.714844 309.066406 185.972656 C 309.066406 178.230469 302.789062 171.957031 295.046875 171.957031 L 80.085938 171.957031 C 72.34375 171.957031 66.066406 178.230469 66.066406 185.972656 C 66.066406 193.714844 72.34375 199.988281 80.085938 199.988281 " fill-opacity="1" fill-rule="nonzero"/></g><g clip-path="url(#435a737b68)"><path fill="#000000" d="M 66.066406 111.222656 C 66.066406 118.960938 72.34375 125.238281 80.085938 125.238281 L 295.046875 125.238281 C 302.789062 125.238281 309.066406 118.960938 309.066406 111.222656 C 309.066406 103.480469 302.789062 97.207031 295.046875 97.207031 L 80.085938 97.207031 C 72.34375 97.207031 66.066406 103.480469 66.066406 111.222656 " fill-opacity="1" fill-rule="nonzero"/></g></svg>