<svg xmlns="http://www.w3.org/2000/svg" xmlns:xlink="http://www.w3.org/1999/xlink" width="500" zoomAndPan="magnify" viewBox="0 0 375 374.999991" height="500" preserveAspectRatio="xMidYMid meet" version="1.0"><defs><clipPath id="d4e5c9fa53"><path d="M 56.339844 99.980469 L 318.636719 99.980469 L 318.636719 274.730469 L 56.339844 274.730469 Z M 56.339844 99.980469 " clip-rule="nonzero"/></clipPath></defs><rect x="-37.5" width="450" fill="#ffffff" y="-37.499999" height="449.999989" fill-opacity="1"/><rect x="-37.5" width="450" fill="#ffffff" y="-37.499999" height="449.999989" fill-opacity="1"/><g clip-path="url(#d4e5c9fa53)"><path fill="#040606" d="M 309.804688 148.035156 C 309.804688 150.441406 307.839844 152.40625 305.433594 152.40625 L 283.574219 152.40625 C 281.164062 152.40625 279.199219 154.367188 279.199219 156.773438 L 279.199219 252.886719 C 279.199219 260.121094 273.324219 265.992188 266.085938 265.992188 L 126.179688 265.992188 C 118.9375 265.992188 113.0625 260.121094 113.0625 252.886719 L 113.0625 108.71875 L 305.433594 108.71875 C 307.839844 108.71875 309.804688 110.679688 309.804688 113.085938 Z M 86.828125 217.9375 C 84.421875 217.9375 82.457031 215.972656 82.457031 213.566406 L 82.457031 113.085938 C 82.457031 110.679688 84.421875 108.71875 86.828125 108.71875 L 104.316406 108.71875 L 104.316406 217.9375 Z M 64.96875 191.722656 C 64.96875 184.144531 68.640625 177.730469 73.714844 175.324219 L 73.714844 208.125 C 68.640625 205.71875 64.96875 199.300781 64.96875 191.722656 Z M 64.96875 134.929688 C 64.96875 127.351562 68.640625 120.9375 73.714844 118.53125 L 73.714844 151.328125 C 68.640625 148.921875 64.96875 142.507812 64.96875 134.929688 Z M 305.433594 99.980469 L 86.828125 99.980469 C 80.988281 99.980469 76.085938 103.835938 74.394531 109.125 C 64.097656 111.242188 56.226562 121.992188 56.226562 134.929688 C 56.226562 147.59375 63.738281 158.171875 73.714844 160.613281 L 73.714844 166.039062 C 63.738281 168.480469 56.226562 179.0625 56.226562 191.722656 C 56.226562 204.675781 64.097656 215.410156 74.394531 217.527344 C 76.085938 222.816406 80.988281 226.671875 86.828125 226.671875 L 104.316406 226.671875 L 104.316406 252.886719 C 104.316406 264.933594 114.121094 274.730469 126.179688 274.730469 L 266.085938 274.730469 C 278.140625 274.730469 287.945312 264.933594 287.945312 252.886719 L 287.945312 161.140625 L 305.433594 161.140625 C 312.675781 161.140625 318.550781 155.269531 318.550781 148.035156 L 318.550781 113.085938 C 318.550781 105.851562 312.675781 99.980469 305.433594 99.980469 " fill-opacity="1" fill-rule="nonzero"/></g><path fill="#040606" d="M 261.710938 178.617188 C 261.710938 181.023438 259.75 182.984375 257.339844 182.984375 L 134.921875 182.984375 C 132.515625 182.984375 130.550781 181.023438 130.550781 178.617188 L 130.550781 134.929688 C 130.550781 132.523438 132.515625 130.5625 134.921875 130.5625 L 257.339844 130.5625 C 259.75 130.5625 261.710938 132.523438 261.710938 134.929688 Z M 257.339844 121.824219 L 134.921875 121.824219 C 127.679688 121.824219 121.804688 127.695312 121.804688 134.929688 L 121.804688 178.617188 C 121.804688 185.851562 127.679688 191.722656 134.921875 191.722656 L 257.339844 191.722656 C 264.582031 191.722656 270.457031 185.851562 270.457031 178.617188 L 270.457031 134.929688 C 270.457031 127.695312 264.582031 121.824219 257.339844 121.824219 " fill-opacity="1" fill-rule="nonzero"/><path fill="#040606" d="M 156.78125 217.9375 C 154.375 217.9375 152.410156 215.972656 152.410156 213.566406 C 152.410156 211.160156 154.375 209.199219 156.78125 209.199219 C 159.191406 209.199219 161.15625 211.160156 161.15625 213.566406 C 161.15625 215.972656 159.191406 217.9375 156.78125 217.9375 Z M 156.78125 200.460938 C 149.542969 200.460938 143.667969 206.332031 143.667969 213.566406 C 143.667969 220.800781 149.542969 226.671875 156.78125 226.671875 C 164.023438 226.671875 169.898438 220.800781 169.898438 213.566406 C 169.898438 206.332031 164.023438 200.460938 156.78125 200.460938 " fill-opacity="1" fill-rule="nonzero"/><path fill="#040606" d="M 196.132812 217.9375 C 193.722656 217.9375 191.757812 215.972656 191.757812 213.566406 C 191.757812 211.160156 193.722656 209.199219 196.132812 209.199219 C 198.539062 209.199219 200.503906 211.160156 200.503906 213.566406 C 200.503906 215.972656 198.539062 217.9375 196.132812 217.9375 Z M 196.132812 200.460938 C 188.890625 200.460938 183.015625 206.332031 183.015625 213.566406 C 183.015625 220.800781 188.890625 226.671875 196.132812 226.671875 C 203.371094 226.671875 209.246094 220.800781 209.246094 213.566406 C 209.246094 206.332031 203.371094 200.460938 196.132812 200.460938 " fill-opacity="1" fill-rule="nonzero"/><path fill="#040606" d="M 235.480469 217.9375 C 233.070312 217.9375 231.109375 215.972656 231.109375 213.566406 C 231.109375 211.160156 233.070312 209.199219 235.480469 209.199219 C 237.886719 209.199219 239.851562 211.160156 239.851562 213.566406 C 239.851562 215.972656 237.886719 217.9375 235.480469 217.9375 Z M 235.480469 200.460938 C 228.238281 200.460938 222.363281 206.332031 222.363281 213.566406 C 222.363281 220.800781 228.238281 226.671875 235.480469 226.671875 C 242.722656 226.671875 248.597656 220.800781 248.597656 213.566406 C 248.597656 206.332031 242.722656 200.460938 235.480469 200.460938 " fill-opacity="1" fill-rule="nonzero"/><path fill="#040606" d="M 149.710938 139.640625 C 148.074219 138.957031 146.195312 139.332031 144.945312 140.578125 L 140.574219 144.945312 C 138.867188 146.652344 138.867188 149.417969 140.574219 151.125 C 141.429688 151.976562 142.539062 152.40625 143.667969 152.40625 L 143.667969 169.878906 C 143.667969 172.285156 145.628906 174.25 148.039062 174.25 C 150.445312 174.25 152.410156 172.285156 152.410156 169.878906 L 152.410156 143.667969 C 152.410156 141.890625 151.351562 140.304688 149.710938 139.640625 " fill-opacity="1" fill-rule="nonzero"/><path fill="#040606" d="M 178.644531 161.140625 C 178.644531 163.546875 176.679688 165.511719 174.269531 165.511719 C 171.863281 165.511719 169.898438 163.546875 169.898438 161.140625 L 169.898438 152.40625 C 169.898438 150 171.863281 148.035156 174.269531 148.035156 C 176.679688 148.035156 178.644531 150 178.644531 152.40625 Z M 174.269531 139.296875 C 167.03125 139.296875 161.15625 145.167969 161.15625 152.40625 L 161.15625 161.140625 C 161.15625 168.378906 167.03125 174.25 174.269531 174.25 C 181.511719 174.25 187.386719 168.378906 187.386719 161.140625 L 187.386719 152.40625 C 187.386719 145.167969 181.511719 139.296875 174.269531 139.296875 " fill-opacity="1" fill-rule="nonzero"/><path fill="#040606" d="M 225.453125 140.578125 C 223.746094 138.871094 220.980469 138.871094 219.273438 140.578125 L 213.621094 146.226562 L 207.964844 140.578125 C 206.257812 138.871094 203.492188 138.871094 201.785156 140.578125 C 200.078125 142.285156 200.078125 145.050781 201.785156 146.753906 L 209.246094 154.214844 L 209.246094 169.878906 C 209.246094 172.285156 211.210938 174.25 213.621094 174.25 C 216.027344 174.25 217.992188 172.285156 217.992188 169.878906 L 217.992188 154.214844 L 225.453125 146.753906 C 227.164062 145.050781 227.164062 142.285156 225.453125 140.578125 " fill-opacity="1" fill-rule="nonzero"/><path fill="#040606" d="M 239.851562 165.511719 C 237.445312 165.511719 235.480469 163.546875 235.480469 161.140625 C 235.480469 158.734375 237.445312 156.773438 239.851562 156.773438 C 242.261719 156.773438 244.222656 158.734375 244.222656 161.140625 C 244.222656 163.546875 242.261719 165.511719 239.851562 165.511719 Z M 248.597656 139.296875 C 246.1875 139.296875 244.222656 141.261719 244.222656 143.667969 L 244.222656 148.835938 C 242.839844 148.359375 241.390625 148.035156 239.851562 148.035156 C 232.609375 148.035156 226.734375 153.90625 226.734375 161.140625 C 226.734375 168.378906 232.609375 174.25 239.851562 174.25 C 241.882812 174.25 243.761719 173.753906 245.472656 172.933594 C 246.273438 173.734375 247.367188 174.25 248.597656 174.25 C 251.003906 174.25 252.96875 172.285156 252.96875 169.878906 L 252.96875 143.667969 C 252.96875 141.261719 251.003906 139.296875 248.597656 139.296875 " fill-opacity="1" fill-rule="nonzero"/></svg>