<svg xmlns="http://www.w3.org/2000/svg" xmlns:xlink="http://www.w3.org/1999/xlink" version="1.1" x="0px" y="0px" viewBox="0 0 100 125" style="enable-background:new 0 0 100 100;" xml:space="preserve"><g><path d="M5.258,62.188h89.484V37.813H5.258V62.188z M7.174,39.728h85.652v20.543H7.174V39.728z M95.211,34.346H4.789   C2.148,34.346,0,36.494,0,39.135v21.73c0,2.641,2.148,4.789,4.789,4.789h90.422c2.641,0,4.789-2.148,4.789-4.789v-21.73   C100,36.494,97.852,34.346,95.211,34.346z M98.084,60.865c0,1.584-1.289,2.873-2.873,2.873H4.789c-1.584,0-2.874-1.289-2.874-2.873   v-21.73c0-1.584,1.289-2.874,2.874-2.874h90.422c1.584,0,2.873,1.29,2.873,2.874V60.865z M34.242,44.026v11.949   c9.488,3.514,21.414,3.581,31.083,0V44.026C55.818,40.505,44.036,40.398,34.242,44.026z M36.157,47.904h5.965v4.195h-5.965V47.904z    M63.41,54.62c-8.38,2.688-18.17,2.908-27.253-0.001v-0.604H63.41V54.62z M44.038,52.099v-4.195h1.734   c1.638,2.801,6.485,2.443,7.915,0h1.686v4.195H44.038z M63.41,52.099h-6.121v-4.195h6.121V52.099z M63.41,45.38v0.607H36.157V45.38   C45.17,42.488,55.175,42.744,63.41,45.38z M79.181,41.178c-4.864,0-8.821,3.958-8.821,8.822c0,4.865,3.957,8.822,8.821,8.822   s8.822-3.957,8.822-8.822C88.003,45.136,84.045,41.178,79.181,41.178z M75.716,55.971c-2.056-1.197-3.441-3.425-3.441-5.971   s1.386-4.773,3.441-5.971V55.971z M80.754,56.724c-0.482,0.112-1.715,0.329-3.122,0.005v-2.742h3.122V56.724z M80.754,52.07h-3.122   v-3.83h3.122V52.07z M80.754,46.325h-3.122V44.65c1.011,0.544,2.224,0.484,3.122,0V46.325z M82.67,55.957V44.044   c2.043,1.201,3.417,3.42,3.417,5.956C86.087,52.535,84.713,54.756,82.67,55.957z M14.647,43.762c-3.439,3.439-3.439,9.037,0,12.476   c3.44,3.439,9.037,3.439,12.477,0c3.439-3.439,3.439-9.037,0-12.476C23.684,40.322,18.087,40.322,14.647,43.762z M26.514,45.999   c0.074,0.104,0.145,0.209,0.212,0.317l-2.199,2.199l-2.208-2.208l0.429-0.429C23.896,46.794,25.584,46.627,26.514,45.999z    M23.172,49.869l-2.708,2.708l-2.208-2.207l2.708-2.708L23.172,49.869z M14.199,51.717c-0.583-2.286,0.018-4.814,1.803-6.6   c1.786-1.786,4.314-2.386,6.6-1.803L14.199,51.717z M15.005,53.619l1.896-1.896l2.208,2.208l-1.908,1.908   C16.53,55.416,15.773,54.867,15.005,53.619z M25.77,54.884c-1.808,1.808-4.376,2.399-6.684,1.78L27.55,48.2   C28.169,50.508,27.577,53.076,25.77,54.884z"/></g><text x="0" y="115" fill="#000000" font-size="5px" font-weight="bold" font-family="'Helvetica Neue', Helvetica, Arial-Unicode, Arial, Sans-serif">Created by b farias</text><text x="0" y="120" fill="#000000" font-size="5px" font-weight="bold" font-family="'Helvetica Neue', Helvetica, Arial-Unicode, Arial, Sans-serif">from the Noun Project</text></svg>