<svg xmlns="http://www.w3.org/2000/svg" data-name="Layer 1" viewBox="0 0 100 125" x="0px" y="0px"><path d="M48.82,63.13H31.58a3.79,3.79,0,0,1-3.79-3.78V38.86a3.79,3.79,0,0,1,3.79-3.78H66.09a3.79,3.79,0,0,1,3.79,3.78V48.5a4,4,0,0,1-4,4H62.26A9.76,9.76,0,0,0,52.75,60,4,4,0,0,1,48.82,63.13ZM31.58,36.77a2.09,2.09,0,0,0-2.09,2.09V59.35a2.09,2.09,0,0,0,2.09,2.09H48.82a2.34,2.34,0,0,0,2.28-1.82,11.44,11.44,0,0,1,11.16-8.77h3.58a2.35,2.35,0,0,0,2.34-2.35V38.86a2.1,2.1,0,0,0-2.09-2.09Z"/><path d="M71.91,49.05H68.39V38.64h3.52a1.63,1.63,0,0,1,1.62,1.62v7.17A1.63,1.63,0,0,1,71.91,49.05Zm-2.25-1.27h2.25a.35.35,0,0,0,.35-.35V40.26a.35.35,0,0,0-.35-.35H69.66Z"/><rect x="68.84" y="40.88" width="4.55" height="0.71"/><rect x="68.84" y="42.62" width="4.55" height="0.71"/><rect x="68.84" y="44.36" width="4.55" height="0.71"/><rect x="68.84" y="46.11" width="4.55" height="0.71"/><path d="M28.19,48.27h-.74a1.19,1.19,0,0,1-1.19-1.2V41a1.19,1.19,0,0,1,1.19-1.19h.74a.8.8,0,0,1,.8.8v6.84A.81.81,0,0,1,28.19,48.27Zm-.74-7.75A.49.49,0,0,0,27,41v6.06a.49.49,0,0,0,.49.49h.74a.1.1,0,0,0,.1-.1V40.62a.11.11,0,0,0-.1-.1Z"/><path d="M28.21,56.38H27.8a1.09,1.09,0,0,1-1.09-1.09V50.73a1.08,1.08,0,0,1,1.09-1.08h.41a.78.78,0,0,1,.78.78V55.6A.78.78,0,0,1,28.21,56.38Zm-.41-6a.38.38,0,0,0-.39.38v4.56a.39.39,0,0,0,.39.39h.41a.09.09,0,0,0,.08-.08V50.43a.09.09,0,0,0-.08-.08Z"/><path d="M49.9,51.51H27.82V40.41H49.9a3.37,3.37,0,0,1,3.37,3.37v4.37A3.37,3.37,0,0,1,49.9,51.51ZM29.46,49.87H49.9a1.73,1.73,0,0,0,1.72-1.72V43.78a1.72,1.72,0,0,0-1.72-1.72H29.46Z"/><path d="M64.61,36.28H60.18a.66.66,0,0,1-.66-.66v-.73a.66.66,0,0,1,.66-.66h4.43a.66.66,0,0,1,.66.66v.73A.66.66,0,0,1,64.61,36.28Zm0-1.39-4.39,0,0,.68,4.35,0Zm0,.68Z"/><path d="M57.4,36.28H54.65a.58.58,0,0,1-.58-.58v-.89a.58.58,0,0,1,.58-.58H57.4a.59.59,0,0,1,.59.58v.89A.59.59,0,0,1,57.4,36.28Zm-2.62-.71h2.5v-.63h-2.5Z"/><text x="0" y="115" fill="#000000" font-size="5px" font-weight="bold" font-family="'Helvetica Neue', Helvetica, Arial-Unicode, Arial, Sans-serif">Created by David McDermott</text><text x="0" y="120" fill="#000000" font-size="5px" font-weight="bold" font-family="'Helvetica Neue', Helvetica, Arial-Unicode, Arial, Sans-serif">from the Noun Project</text></svg>